<svg width="17" height="16" viewBox="0 0 17 16" fill="none" xmlns="http://www.w3.org/2000/svg">
<path d="M15.4434 2.54492L14.3301 1.43164C13.9785 1.08008 13.4805 0.875 13.0117 0.875C12.543 0.875 12.0449 1.08008 11.6934 1.43164L9.49609 3.62891L8.5 4.625L1.35156 11.7734L1 15.1133C0.941406 15.5234 1.26367 15.875 1.67383 15.875C1.70312 15.875 1.73242 15.875 1.76172 15.875L5.10156 15.5234L12.25 8.375L13.2461 7.37891L15.4434 5.18164C16.1758 4.44922 16.1758 3.27734 15.4434 2.54492ZM4.45703 14.1758L2.49414 14.3809L2.69922 12.418L9.4668 5.62109L10.375 4.71289L12.1621 6.5L11.2539 7.4082L4.45703 14.1758ZM14.4473 4.18555L13.1582 5.50391L11.3711 3.7168L12.6895 2.42773C12.8066 2.31055 12.9531 2.28125 13.0117 2.28125C13.0703 2.28125 13.2168 2.31055 13.334 2.42773L14.4473 3.54102C14.623 3.7168 14.623 4.00977 14.4473 4.18555Z" fill="#B5B5B5"/>
</svg>
