<svg width="23" height="19" viewBox="0 0 23 19" fill="none" xmlns="http://www.w3.org/2000/svg">
<path d="M20.3281 0.75C19.3906 0.789062 14.7031 1.10156 11.7734 2.66406C11.6172 2.74219 11.3438 2.74219 11.1875 2.66406C8.25781 1.10156 3.57031 0.789062 2.63281 0.75C1.30469 0.75 0.25 1.80469 0.25 3.09375V14.6562C0.25 15.9062 1.22656 16.8828 2.47656 16.9609C3.84375 17.0391 7.24219 17.2734 9.58594 18.1328C9.82031 18.2109 10.0156 18.25 10.2109 18.25H12.7109C12.9453 18.25 13.1406 18.2109 13.375 18.1328C15.7188 17.2734 19.1172 17.0391 20.4844 16.9609C21.7344 16.8828 22.7109 15.9062 22.7109 14.6562V3.09375C22.75 1.80469 21.6562 0.75 20.3281 0.75ZM10.875 16.4141C10.875 16.7656 10.5625 17.0391 10.25 17.0391C10.1719 17.0391 10.1328 17 10.0547 17C7.59375 16.0625 4.23438 15.7891 2.55469 15.7109C1.96875 15.6719 1.5 15.2422 1.5 14.6562V3.09375C1.5 2.50781 2.00781 2.03906 2.63281 2.03906C3.375 2.03906 7.39844 2.3125 10.1328 3.52344C10.5625 3.71875 10.8359 4.14844 10.8359 4.61719L10.875 8.52344V16.4141ZM21.5 14.6562C21.5 15.2422 20.9922 15.6719 20.4062 15.7109C18.7266 15.7891 15.3672 16.0625 12.9062 17C12.8281 17 12.7891 17.0391 12.7109 17.0391C12.3984 17.0391 12.0859 16.7656 12.0859 16.4141V8.52344L12.125 4.61719C12.125 4.14844 12.3984 3.71875 12.8281 3.52344C15.5625 2.3125 19.5859 2.03906 20.3281 2.03906C20.9531 2.03906 21.4609 2.50781 21.4609 3.09375V14.6562H21.5Z" fill="#FF7800"/>
</svg>
