<svg width="17" height="12" viewBox="0 0 17 12" fill="none" xmlns="http://www.w3.org/2000/svg">
<path d="M8.5 3.09375C8.17773 3.12305 7.85547 3.15234 7.5625 3.24023C7.70898 3.47461 7.76758 3.76758 7.79688 4.03125C7.79688 4.93945 7.03516 5.67188 6.15625 5.67188C5.86328 5.67188 5.57031 5.61328 5.36523 5.4668C5.27734 5.75977 5.21875 6.05273 5.21875 6.375C5.21875 8.19141 6.68359 9.65625 8.5 9.65625C10.3164 9.65625 11.7812 8.19141 11.7812 6.375C11.7812 4.58789 10.3164 3.12305 8.5 3.12305V3.09375ZM16.8203 5.96484C15.2383 2.85938 12.0742 0.75 8.5 0.75C4.89648 0.75 1.73242 2.85938 0.150391 5.96484C0.0917969 6.08203 0.0625 6.22852 0.0625 6.375C0.0625 6.55078 0.0917969 6.69727 0.150391 6.81445C1.73242 9.91992 4.89648 12 8.5 12C12.0742 12 15.2383 9.91992 16.8203 6.81445C16.8789 6.69727 16.9082 6.55078 16.9082 6.4043C16.9082 6.22852 16.8789 6.08203 16.8203 5.96484ZM8.5 10.5938C5.59961 10.5938 2.93359 8.98242 1.52734 6.375C2.93359 3.76758 5.59961 2.15625 8.5 2.15625C11.3711 2.15625 14.0371 3.76758 15.4434 6.375C14.0371 8.98242 11.3711 10.5938 8.5 10.5938Z" fill="#B5B5B5"/>
</svg>
