<svg width="282" height="305" viewBox="0 0 282 305" fill="none" xmlns="http://www.w3.org/2000/svg">
<rect y="0.400391" width="282" height="304" rx="15" fill="#010101" fill-opacity="0.3"/>
<path d="M157.375 118.807C157.375 118.045 156.73 117.4 155.969 117.4H151.984L145.715 108.846C145.129 107.967 143.957 107.791 143.137 108.436C142.258 109.021 142.082 110.193 142.727 111.014L147.355 117.4H133.586L138.215 111.014C138.859 110.193 138.684 109.021 137.805 108.436C136.984 107.791 135.812 107.967 135.227 108.846L128.957 117.4H125.031C124.211 117.4 123.625 118.045 123.625 118.807V119.744C123.625 120.564 124.211 121.15 125.031 121.15H125.5L127.023 131.873C127.199 133.279 128.371 134.275 129.777 134.275H151.164C152.57 134.275 153.742 133.279 153.918 131.873L155.5 121.15H155.969C156.73 121.15 157.375 120.564 157.375 119.744V118.807ZM141.906 129.119C141.906 129.939 141.262 130.525 140.5 130.525C139.68 130.525 139.094 129.939 139.094 129.119V122.557C139.094 121.795 139.68 121.15 140.5 121.15C141.262 121.15 141.906 121.795 141.906 122.557V129.119ZM148.469 129.119C148.469 129.939 147.824 130.525 147.062 130.525C146.242 130.525 145.656 129.939 145.656 129.119V122.557C145.656 121.795 146.242 121.15 147.062 121.15C147.824 121.15 148.469 121.795 148.469 122.557V129.119ZM135.344 129.119C135.344 129.939 134.699 130.525 133.938 130.525C133.117 130.525 132.531 129.939 132.531 129.119V122.557C132.531 121.795 133.117 121.15 133.938 121.15C134.699 121.15 135.344 121.795 135.344 122.557V129.119Z" fill="white"/>
<path d="M116.839 154.08C116.231 154.08 115.681 154.187 115.191 154.4C114.7 154.603 114.284 154.907 113.943 155.312C113.601 155.707 113.34 156.192 113.159 156.768C112.977 157.334 112.887 157.974 112.887 158.688C112.887 159.627 113.031 160.443 113.319 161.136C113.617 161.83 114.055 162.363 114.631 162.736C115.217 163.11 115.948 163.296 116.823 163.296C117.324 163.296 117.799 163.254 118.247 163.168C118.695 163.083 119.132 162.976 119.559 162.848V164.096C119.132 164.256 118.689 164.374 118.231 164.448C117.783 164.523 117.244 164.56 116.615 164.56C115.452 164.56 114.481 164.32 113.703 163.84C112.924 163.36 112.337 162.678 111.943 161.792C111.559 160.907 111.367 159.867 111.367 158.672C111.367 157.808 111.484 157.019 111.719 156.304C111.964 155.59 112.316 154.971 112.775 154.448C113.244 153.926 113.82 153.526 114.503 153.248C115.185 152.96 115.969 152.816 116.855 152.816C117.441 152.816 118.007 152.875 118.551 152.992C119.095 153.11 119.58 153.275 120.007 153.488L119.431 154.704C119.079 154.544 118.684 154.4 118.247 154.272C117.82 154.144 117.351 154.08 116.839 154.08ZM125.108 155.68C126.153 155.68 126.927 155.91 127.428 156.368C127.929 156.827 128.18 157.558 128.18 158.56V164.4H127.156L126.884 163.184H126.82C126.575 163.494 126.319 163.755 126.052 163.968C125.796 164.171 125.497 164.32 125.156 164.416C124.825 164.512 124.42 164.56 123.94 164.56C123.428 164.56 122.964 164.47 122.548 164.288C122.143 164.107 121.823 163.83 121.588 163.456C121.353 163.072 121.236 162.592 121.236 162.016C121.236 161.163 121.572 160.507 122.244 160.048C122.916 159.579 123.951 159.323 125.348 159.28L126.804 159.232V158.72C126.804 158.006 126.649 157.51 126.34 157.232C126.031 156.955 125.593 156.816 125.028 156.816C124.58 156.816 124.153 156.886 123.748 157.024C123.343 157.152 122.964 157.302 122.612 157.472L122.18 156.416C122.553 156.214 122.996 156.043 123.508 155.904C124.02 155.755 124.553 155.68 125.108 155.68ZM125.524 160.256C124.457 160.299 123.716 160.47 123.3 160.768C122.895 161.067 122.692 161.488 122.692 162.032C122.692 162.512 122.836 162.864 123.124 163.088C123.423 163.312 123.801 163.424 124.26 163.424C124.985 163.424 125.588 163.227 126.068 162.832C126.548 162.427 126.788 161.808 126.788 160.976V160.208L125.524 160.256ZM136.061 155.824V157.008H132.237V164.4H130.829V155.824H136.061ZM141.034 164.56C140.277 164.56 139.6 164.406 139.002 164.096C138.416 163.787 137.952 163.307 137.61 162.656C137.28 162.006 137.114 161.174 137.114 160.16C137.114 159.104 137.29 158.246 137.642 157.584C137.994 156.923 138.469 156.438 139.066 156.128C139.674 155.819 140.362 155.664 141.13 155.664C141.568 155.664 141.989 155.712 142.394 155.808C142.8 155.894 143.13 156 143.386 156.128L142.954 157.296C142.698 157.2 142.4 157.11 142.058 157.024C141.717 156.939 141.397 156.896 141.098 156.896C140.522 156.896 140.048 157.019 139.674 157.264C139.301 157.51 139.024 157.872 138.842 158.352C138.661 158.832 138.57 159.43 138.57 160.144C138.57 160.827 138.661 161.408 138.842 161.888C139.024 162.368 139.296 162.731 139.658 162.976C140.021 163.222 140.474 163.344 141.018 163.344C141.488 163.344 141.898 163.296 142.25 163.2C142.613 163.104 142.944 162.987 143.242 162.848V164.096C142.954 164.246 142.634 164.358 142.282 164.432C141.941 164.518 141.525 164.56 141.034 164.56ZM151.81 164.4H150.386V156.992H147.858C147.751 158.347 147.618 159.504 147.458 160.464C147.298 161.414 147.095 162.187 146.85 162.784C146.605 163.382 146.311 163.819 145.97 164.096C145.629 164.374 145.229 164.512 144.77 164.512C144.631 164.512 144.493 164.502 144.354 164.48C144.226 164.47 144.119 164.443 144.034 164.4V163.344C144.098 163.366 144.167 163.382 144.242 163.392C144.317 163.403 144.391 163.408 144.466 163.408C144.701 163.408 144.914 163.312 145.106 163.12C145.298 162.928 145.469 162.635 145.618 162.24C145.778 161.846 145.922 161.35 146.05 160.752C146.178 160.144 146.29 159.43 146.386 158.608C146.482 157.787 146.567 156.859 146.642 155.824H151.81V164.4ZM157.78 155.68C158.825 155.68 159.599 155.91 160.1 156.368C160.601 156.827 160.852 157.558 160.852 158.56V164.4H159.828L159.556 163.184H159.492C159.247 163.494 158.991 163.755 158.724 163.968C158.468 164.171 158.169 164.32 157.828 164.416C157.497 164.512 157.092 164.56 156.612 164.56C156.1 164.56 155.636 164.47 155.22 164.288C154.815 164.107 154.495 163.83 154.26 163.456C154.025 163.072 153.908 162.592 153.908 162.016C153.908 161.163 154.244 160.507 154.916 160.048C155.588 159.579 156.623 159.323 158.02 159.28L159.476 159.232V158.72C159.476 158.006 159.321 157.51 159.012 157.232C158.703 156.955 158.265 156.816 157.7 156.816C157.252 156.816 156.825 156.886 156.42 157.024C156.015 157.152 155.636 157.302 155.284 157.472L154.852 156.416C155.225 156.214 155.668 156.043 156.18 155.904C156.692 155.755 157.225 155.68 157.78 155.68ZM158.196 160.256C157.129 160.299 156.388 160.47 155.972 160.768C155.567 161.067 155.364 161.488 155.364 162.032C155.364 162.512 155.508 162.864 155.796 163.088C156.095 163.312 156.473 163.424 156.932 163.424C157.657 163.424 158.26 163.227 158.74 162.832C159.22 162.427 159.46 161.808 159.46 160.976V160.208L158.196 160.256ZM165.533 160.016L162.573 155.824H164.173L166.381 159.056L168.573 155.824H170.157L167.197 160.016L170.317 164.4H168.717L166.381 160.976L164.013 164.4H162.429L165.533 160.016Z" fill="white"/>
<path d="M110.391 166.4H170.605V167.2H110.391V166.4Z" fill="white"/>
</svg>
